<?xml version="1.0" encoding="iso-8859-1"?>
<!-- Generator: Adobe Illustrator 19.0.0, SVG Export Plug-In . SVG Version: 6.00 Build 0)  -->
<svg version="1.1" id="Capa_1" xmlns="http://www.w3.org/2000/svg" xmlns:xlink="http://www.w3.org/1999/xlink" x="0px" y="0px"
	 viewBox="0 0 472.25 472.25" style="enable-background:new 0 0 472.25 472.25;" xml:space="preserve">
<path style="fill:#E6E6E6;" d="M456.126,464.25c-2.122,0-4.156-0.844-5.656-2.344L344.806,356.25
	c-3.128-3.126-3.13-8.196-0.004-11.324s8.196-3.13,11.324-0.004l0,0l105.656,105.672c3.124,3.125,3.123,8.19-0.002,11.314
	C460.281,463.407,458.247,464.249,456.126,464.25z"/>
<path style="fill:#FBB03B;" d="M120.126,280.25l184-168l72,264L120.126,280.25z"/>
<circle style="fill:#ED1C24;" cx="456.126" cy="456.25" r="16"/>
<g>
	<path style="fill:#93CAE2;" d="M168.126,236.426v61.824l48,18V192.594L168.126,236.426z"/>
	<path style="fill:#93CAE2;" d="M304.126,112.25l-40,36.52v185.48l48,18V141.586L304.126,112.25z"/>
</g>
<circle style="fill:#F8CF26;" cx="32.126" cy="80.25" r="24"/>
<circle style="fill:#29ABE2;" cx="216.126" cy="80.25" r="24"/>
<g>
	<path style="fill:#E6E6E6;" d="M296.126,88.25c-3.749-0.001-6.995-2.604-7.808-6.264l-16-72c-0.959-4.317,1.763-8.593,6.08-9.552
		s8.593,1.763,9.552,6.08l16,72c0.957,4.313-1.763,8.586-6.077,9.543c-0.001,0-0.002,0-0.003,0.001
		C297.298,88.185,296.713,88.249,296.126,88.25z"/>
	<path style="fill:#E6E6E6;" d="M88.126,264.25c-0.778,0.002-1.551-0.112-2.296-0.336l-80-24c-4.233-1.268-6.636-5.727-5.368-9.96
		s5.727-6.636,9.96-5.368l80,24c4.233,1.267,6.637,5.725,5.37,9.958C94.778,261.931,91.662,264.251,88.126,264.25z"/>
	<path style="fill:#E6E6E6;" d="M160.126,128.25c-2.585,0-5.01-1.248-6.512-3.352l-80-112c-2.705-3.494-2.065-8.518,1.428-11.223
		s8.518-2.065,11.223,1.428c0.125,0.162,0.244,0.328,0.357,0.499l80,112c2.567,3.596,1.733,8.592-1.863,11.159
		C163.407,127.726,161.788,128.247,160.126,128.25L160.126,128.25z"/>
	<path style="fill:#E6E6E6;" d="M144.126,216.25c-1.732,0.003-3.417-0.558-4.8-1.6l-64-48c-3.535-2.651-4.251-7.665-1.6-11.2
		c2.651-3.535,7.665-4.251,11.2-1.6l64,48c3.535,2.651,4.251,7.665,1.6,11.2C149.015,215.064,146.644,216.25,144.126,216.25
		L144.126,216.25z"/>
</g>
<path style="fill:#FBCC34;" d="M33.418,295.582l11.723-19.373l13.696,8.288L47.114,303.87L33.418,295.582z"/>
<path style="fill:#06AAE9;" d="M16.536,154.781l15.171-5.057l7.999,23.998l-15.171,5.057L16.536,154.781z"/>
<path style="fill:#CDA349;" d="M82.471,93.908l11.314-11.314l15.998,15.998l-11.314,11.314L82.471,93.908z"/>
<g>
	<path style="fill:#ED1C24;" d="M196.546,137.098l16-8l7.155,14.311l-16,8L196.546,137.098z"/>
	<path style="fill:#ED1C24;" d="M122.475,13.911l11.314-11.314l15.998,15.998l-11.314,11.314L122.475,13.911z"/>
</g>
<path style="fill:#29ABE2;" d="M24.126,0.25h24v16h-24V0.25z"/>
<path style="fill:#FBCC34;" d="M219.14,25.932l20.003-20.003l11.314,11.314l-20.003,20.003L219.14,25.932z"/>
<g>
	<path style="fill:#ED1C24;" d="M378.474,50.626l15.998-15.998l11.314,11.314L389.788,61.94L378.474,50.626z"/>
	<path style="fill:#ED1C24;" d="M0.126,344.25h16v24h-16V344.25z"/>
</g>
<path style="fill:#CDA349;" d="M314.472,13.906l11.314-11.314l15.998,15.998L330.47,29.903L314.472,13.906z"/>
<path style="fill:#06AAE9;" d="M362.474,125.905l11.314-11.314l15.998,15.998l-11.314,11.314L362.474,125.905z"/>
<path style="fill:#FBCC34;" d="M82.469,370.59l15.998-15.998l11.314,11.314l-15.998,15.998L82.469,370.59z"/>
<path style="fill:#F8CF26;" d="M448.126,48.25h16v24h-16V48.25z"/>
<g>
	<path style="fill:#FF1D25;" d="M76.126,224.25c-6.627,0-12-5.373-12-12s5.373-12,12-12s12,5.373,12,12S82.754,224.25,76.126,224.25
		z M76.126,208.25c-2.209,0-4,1.791-4,4s1.791,4,4,4s4-1.791,4-4S78.335,208.25,76.126,208.25z"/>
	<path style="fill:#FF1D25;" d="M348.126,88.25c-6.627,0-12-5.373-12-12s5.373-12,12-12s12,5.373,12,12S354.754,88.25,348.126,88.25
		z M348.126,72.25c-2.209,0-4,1.791-4,4s1.791,4,4,4s4-1.791,4-4S350.335,72.25,348.126,72.25z"/>
</g>
<g>
	<path style="fill:#FBCC34;" d="M348.126,92.25c-8.837,0-16-7.163-16-16s7.163-16,16-16s16,7.163,16,16S356.963,92.25,348.126,92.25
		z M340.126,76.25c0,4.418,3.582,8,8,8s8-3.582,8-8c0,4.418-3.582,8-8,8S340.126,80.668,340.126,76.25z M348.126,72.25v4V72.25z"/>
	<path style="fill:#FBCC34;" d="M180.126,40.25c-6.627,0-12-5.373-12-12s5.373-12,12-12s12,5.373,12,12S186.754,40.25,180.126,40.25
		z M180.126,24.25c-2.209,0-4,1.791-4,4s1.791,4,4,4s4-1.791,4-4S182.335,24.25,180.126,24.25z"/>
</g>
<path style="fill:#0378A3;" d="M92.126,336.25c-6.627,0-12-5.373-12-12s5.373-12,12-12s12,5.373,12,12S98.754,336.25,92.126,336.25z
	 M92.126,320.25c-2.209,0-4,1.791-4,4s1.791,4,4,4s4-1.791,4-4S94.335,320.25,92.126,320.25z"/>
<path style="fill:#0071BC;" d="M172.126,184.25c-6.627,0-12-5.373-12-12s5.373-12,12-12s12,5.373,12,12
	S178.754,184.25,172.126,184.25z M172.126,168.25c-2.209,0-4,1.791-4,4s1.791,4,4,4s4-1.791,4-4S174.335,168.25,172.126,168.25z"/>
<g>
</g>
<g>
</g>
<g>
</g>
<g>
</g>
<g>
</g>
<g>
</g>
<g>
</g>
<g>
</g>
<g>
</g>
<g>
</g>
<g>
</g>
<g>
</g>
<g>
</g>
<g>
</g>
<g>
</g>
</svg>
